<?xml version="1.0" encoding="UTF-8"?>
<svg width="65px" height="51px" viewBox="0 0 65 51" version="1.1" xmlns="http://www.w3.org/2000/svg" xmlns:xlink="http://www.w3.org/1999/xlink">
    <!-- Generator: Sketch 47.1 (45422) - http://www.bohemiancoding.com/sketch -->
    <title>Page 1</title>
    <desc>Created with Sketch.</desc>
    <defs>
        <polygon id="path-1" points="0.039 16.7862857 45.6470899 16.7862857 45.6470899 0.183831349 0.039 0.183831349"></polygon>
        <polygon id="path-3" points="23.7372843 0.281503279 0.355250562 0.281503279 0.355250562 26.8395478 23.7372843 26.8395478 23.7372843 0.281503279"></polygon>
    </defs>
    <g id="Page-1" stroke="none" stroke-width="1" fill="none" fill-rule="evenodd">
        <g id="Desktop-HD" transform="translate(-25.000000, -38.000000)">
            <g id="Page-1" transform="translate(25.000000, 38.000000)">
                <g id="Group-3" transform="translate(10.224719, 33.514286)">
                    <mask id="mask-2" fill="#ffffff">
                        <use xlink:href="#path-1"></use>
                    </mask>
                    <g id="Clip-2"></g>
                    <path d="M0.958348315,14.9191773 L4.90917978,15.897086 C4.89647191,15.8488793 4.88288764,15.8011029 4.86842697,15.7528961 C4.79831461,15.5510303 4.74441573,15.3099964 4.70760674,15.0289338 C4.67255056,14.7577707 4.65502247,14.4689605 4.65502247,14.1698203 C4.65502247,12.9401172 4.96044944,11.9708168 5.56253933,11.2881746 C6.18610112,10.5822897 7.27634831,10.2388165 8.89594382,10.2388165 L14.7161461,10.2388165 C15.9772921,10.2388165 17.0627191,10.0834357 17.9417528,9.77611759 C18.8177191,9.47138194 19.5503933,9.07066317 20.1191798,8.58601298 C20.6914719,8.09834985 21.1493933,7.56721456 21.480236,7.0076717 C21.8189663,6.43521632 22.0884607,5.86405218 22.2808315,5.30967434 L22.3566404,5.09102221 L22.927618,5.09102221 L23.003427,5.30967434 C23.1957978,5.86319135 23.4723034,6.43220339 23.8259326,7.00164585 C24.175618,7.56549289 24.6431798,8.09834985 25.2154719,8.58601298 C25.7842584,9.07109359 26.5086067,9.47181236 27.369236,9.77697843 C28.231618,10.0834357 29.3082809,10.2388165 30.5685506,10.2388165 L36.7892697,10.2388165 C38.4093034,10.2388165 39.4999888,10.5822897 40.1231124,11.2881746 C40.7256404,11.9703864 41.0315056,12.9401172 41.0315056,14.1698203 C41.0315056,14.8128641 40.9789213,15.3267827 40.8706854,15.7417053 C40.8636742,15.7899121 40.8553483,15.8407013 40.8461461,15.8923514 L44.7996067,14.9140123 C44.8381685,14.7577707 44.8692809,14.5911991 44.8920674,14.4173104 C44.923618,14.2021016 44.9477191,13.9369644 44.964809,13.6240508 C44.9810225,13.3098459 44.9897865,12.9616381 44.9897865,12.5828706 C44.9897865,11.5649331 44.8517528,10.6266227 44.5787528,9.79462555 C44.3118876,8.98199715 43.8820112,8.27180814 43.3013933,7.68342731 C42.7207753,7.09676814 41.959618,6.62890423 41.0402697,6.29403935 C40.1104045,5.95659196 38.9500449,5.78485535 37.5920562,5.78485535 L31.1710787,5.78485535 C29.999764,5.78485535 29.0098652,5.64927381 28.2281124,5.38155407 C27.4340899,5.11168225 26.7767865,4.73033227 26.2754831,4.24912542 C25.7794382,3.77308357 25.3841798,3.21354071 25.1011011,2.58556146 C24.8578989,2.04581781 24.6396742,1.45657614 24.4512472,0.829457723 L20.8330112,0.829457723 C20.6437079,1.46001948 20.4254831,2.05012199 20.1835955,2.58556146 C19.9005169,3.21440155 19.5052584,3.7739444 19.0087753,4.24955583 C18.5083483,4.73033227 17.8510449,5.11125183 17.0552697,5.38198449 C16.2748315,5.64927381 15.2844944,5.78485535 14.113618,5.78485535 L8.09359551,5.78485535 C6.73560674,5.78485535 5.57524719,5.95659196 4.64582022,6.29403935 C3.72603371,6.62933465 2.96531461,7.09676814 2.38425843,7.68342731 C1.80407865,8.27137772 1.37420225,8.98156673 1.10689888,9.79505596 C0.834775281,10.6253315 0.696303371,11.5636418 0.696303371,12.5828706 C0.696303371,12.9508777 0.712516854,13.2960726 0.744505618,13.6089862 C0.777808989,13.9236214 0.81111236,14.192202 0.843101124,14.4125758 C0.887359551,14.5757041 0.926797753,14.7491623 0.958348315,14.9191773 L0.958348315,14.9191773 Z M39.9232921,16.7863288 L40.0863034,16.2440026 C40.1485281,16.0369717 40.1958539,15.8247759 40.2269663,15.6147321 C40.3268764,15.2247738 40.3742022,14.7495928 40.3742022,14.1698203 C40.3742022,13.0998022 40.1226742,12.27297 39.6266292,11.711275 C39.1419775,11.1624926 38.187573,10.8844429 36.7892697,10.8844429 L30.5685506,10.8844429 C29.2315955,10.8844429 28.08,10.7157192 27.1457528,10.3838672 C26.2093146,10.0515848 25.4148539,9.61083724 24.7847191,9.0736761 C24.1615955,8.54297122 23.6497753,7.95889456 23.2645955,7.3382324 C23.0240225,6.95042616 22.8163146,6.5621895 22.6436629,6.17653535 C22.4758315,6.559607 22.2768876,6.94612199 22.0485843,7.33220656 C21.6813708,7.95329913 21.177,8.53952788 20.5499326,9.0736761 C19.9189213,9.61169807 19.1152584,10.0524457 18.1617303,10.3847281 C17.2121461,10.7161496 16.0526629,10.8844429 14.7161461,10.8844429 L8.89594382,10.8844429 C7.49807865,10.8844429 6.54367416,11.1624926 6.05946067,11.711275 C5.56341573,12.2734004 5.31232584,13.1002326 5.31232584,14.1698203 C5.31232584,14.4422746 5.32810112,14.7035381 5.35921348,14.9471544 C5.39032584,15.1813016 5.43589888,15.3870412 5.49461798,15.5574866 C5.57042697,15.8079896 5.62432584,16.0503147 5.65982022,16.2891964 L5.72993258,16.7660991 L0.375101124,15.4408434 L0.343550562,15.2269259 C0.312438202,15.0155908 0.264235955,14.7844566 0.199820225,14.5391186 C0.159505618,14.2769943 0.125325843,13.9998053 0.0907078652,13.6744096 C0.0565280899,13.3391143 0.039,12.9723986 0.039,12.5828706 C0.039,11.4964967 0.187988764,10.491902 0.48158427,9.59706388 C0.78,8.68802194 1.26114607,7.89347109 1.91275281,7.23407135 C2.56260674,6.57725412 3.40526966,6.0577401 4.41751685,5.68887223 C5.4205618,5.32430854 6.65716854,5.13922898 8.09359551,5.13922898 L14.113618,5.13922898 C15.2108764,5.13922898 16.1280337,5.01569913 16.8396742,4.77208278 C17.5438652,4.5327706 18.1187865,4.20177948 18.5495393,3.78771777 C18.9859888,3.36935188 19.3334831,2.87695416 19.582382,2.32386757 C19.8417978,1.75012093 20.0727303,1.10965957 20.2690449,0.419269767 L20.3360899,0.183831349 L24.9486067,0.183831349 L25.0152135,0.419269767 C25.2106517,1.10492498 25.4415843,1.74581676 25.7023146,2.32386757 C25.9512135,2.87652375 26.2987079,3.36892146 26.7347191,3.78771777 C27.1663483,4.20177948 27.7417079,4.5327706 28.4441461,4.77165236 C29.1566629,5.01569913 30.0738202,5.13922898 31.1710787,5.13922898 L37.5920562,5.13922898 C39.0280449,5.13922898 40.2650899,5.32430854 41.268573,5.68887223 C42.2808202,6.05730968 43.1230449,6.57725412 43.7728989,7.23407135 C44.4245056,7.8939015 44.9060899,8.68845236 45.2045056,9.59663346 C45.4981011,10.4927629 45.6470899,11.4977879 45.6470899,12.5828706 C45.6470899,12.9732594 45.6378876,13.3322277 45.621236,13.6571929 C45.6028315,13.9955012 45.5774157,14.2722597 45.543236,14.5046852 C45.5077416,14.774557 45.4538427,15.0340988 45.3828539,15.2708284 L45.3302697,15.4481605 L39.9232921,16.7863288 Z" id="Fill-1" fill="#ffffff" mask="url(#mask-2)"></path>
                </g>
                <path d="M0.772130455,33.4526328 L1.52954092,37.8217958 L24.4690862,33.1381314 L25.5400771,28.8656352 L7.48177014,14.0622444 L4.77864446,17.4736484 L20.3787129,29.8559135 L0.772130455,33.4526328 Z M0.988023661,38.6142857 L0,32.9149513 L18.8099186,29.464346 L3.83924138,17.5823429 L7.38006838,13.1142857 L26.2921348,28.6175088 L25.0159562,33.7087776 L24.8098763,33.7506517 L0.988023661,38.6142857 Z" id="Fill-4" fill="#ffffff"></path>
                <g id="Group-8" transform="translate(32.865169, 0.000000)">
                    <mask id="mask-4" fill="#ffffff">
                        <use xlink:href="#path-3"></use>
                    </mask>
                    <g id="Clip-7"></g>
                    <path d="M1.15496966,24.1880256 L5.07337416,26.0604422 L22.8034753,11.3732186 L20.0279022,8.0791441 L5.10317191,20.8462237 L5.37661011,1.07382232 L1.01693596,0.961574543 L1.15496966,24.1880256 Z M5.16846404,26.8395478 L0.500295506,24.6087338 L0.355250562,0.281459087 L6.04311573,0.427734731 L5.78063258,19.3971668 L20.1037112,7.14536635 L23.7372843,11.4580673 L5.16846404,26.8395478 Z" id="Fill-6" fill="#ffffff" mask="url(#mask-4)"></path>
                </g>
                <path d="M8.97037507,11.6016257 L26.6333048,26.1868971 L30.5491245,24.3513343 L30.743189,1.39259143 L26.4820744,1.44854571 L26.6245632,21.0286114 L11.8376345,8.31125143 L8.97037507,11.6016257 Z M26.5358355,26.9571429 L8.03370787,11.6785629 L11.771198,7.38888 L25.9584499,19.5908486 L25.8220802,0.801574286 L31.4044944,0.728571429 L31.2012511,24.76968 L26.5358355,26.9571429 Z" id="Fill-9" fill="#ffffff"></path>
                <path d="M40.5108844,33.0924377 L63.4240871,37.8226532 L64.2200748,33.5565595 L44.6162,29.8297905 L60.2869852,17.5775088 L57.5706325,14.0656687 L39.4587886,28.8196692 L40.5108844,33.0924377 Z M63.9572739,38.6142857 L39.9616351,33.6606866 L38.7078652,28.5695863 L57.6803932,13.1142857 L61.2226278,17.6945405 L46.1880973,29.4488813 L65,33.0256896 L63.9572739,38.6142857 Z" id="Fill-11" fill="#ffffff"></path>
            </g>
        </g>
    </g>
</svg>